<svg xmlns="http://www.w3.org/2000/svg" viewBox="0 0 600 800" role="img" aria-label="Automotive blueprint">
<rect width="600" height="800" fill="#ECE4D5"/>
<g stroke="#C4B79C" stroke-width="1">
<line x1="0" y1="200" x2="600" y2="200"/><line x1="0" y1="400" x2="600" y2="400"/><line x1="0" y1="600" x2="600" y2="600"/>
<line x1="150" y1="0" x2="150" y2="800"/><line x1="300" y1="0" x2="300" y2="800"/><line x1="450" y1="0" x2="450" y2="800"/>
</g>
<g fill="none" stroke="#17140F" stroke-width="4" stroke-linejoin="round" stroke-linecap="round">
<path d="M70 470 L110 470 Q140 400 200 392 L360 385 Q430 384 470 430 L530 445 Q545 448 545 470 L520 470"/>
<path d="M70 470 L150 470"/><path d="M235 470 L385 470"/><path d="M470 470 L520 470"/>
<path d="M205 392 L240 340 L360 338 L400 388"/>
<line x1="300" y1="338" x2="300" y2="388"/>
</g>
<circle cx="192" cy="472" r="42" fill="none" stroke="#17140F" stroke-width="4"/>
<circle cx="192" cy="472" r="14" fill="#A9843C"/>
<circle cx="428" cy="472" r="42" fill="none" stroke="#17140F" stroke-width="4"/>
<circle cx="428" cy="472" r="14" fill="#A9843C"/>
</svg>
