<svg xmlns="http://www.w3.org/2000/svg" viewBox="0 0 1200 800" role="img" aria-label="Industrial Heritage — in development">
<rect width="1200" height="800" fill="#ECE4D5"/>
<g stroke="#D3C7AF" stroke-width="1">
<line x1="0" y1="200" x2="1200" y2="200"/><line x1="0" y1="400" x2="1200" y2="400"/><line x1="0" y1="600" x2="1200" y2="600"/>
<line x1="300" y1="0" x2="300" y2="800"/><line x1="600" y1="0" x2="600" y2="800"/><line x1="900" y1="0" x2="900" y2="800"/>
</g>
<rect x="60" y="54" width="150" height="60" fill="none" stroke="#17140F" stroke-width="4"/>
<text x="135" y="97" text-anchor="middle" font-family="Archivo, Arial" font-size="34" font-weight="900" letter-spacing="4" fill="#17140F">FORM</text>

<g fill="none" stroke="#17140F" stroke-width="6" stroke-linejoin="round">
<rect x="330" y="440" width="270" height="180"/>
<path d="M330 440 L 375 380 L 420 440 L 465 380 L 510 440 L 555 380 L 600 440"/>
<rect x="380" y="300" width="34" height="140"/>
<rect x="470" y="260" width="34" height="180"/>
<circle cx="740" cy="500" r="120"/>
<line x1="640" y1="440" x2="840" y2="440"/><line x1="628" y1="500" x2="852" y2="500"/><line x1="640" y1="560" x2="840" y2="560"/>
<line x1="740" y1="380" x2="740" y2="620"/>
</g>
<rect x="470" y="238" width="34" height="12" fill="#A9843C"/>
<text x="60" y="712" font-family="Archivo, Arial" font-size="26" font-weight="900" letter-spacing="4" fill="#17140F">VOLUME X</text>
<text x="60" y="748" font-family="Archivo, Arial" font-size="18" font-weight="700" letter-spacing="6" fill="#A9843C">IN DEVELOPMENT</text>
<g transform="translate(1040,690)" fill="none" stroke="#B7A98C" stroke-width="2"><circle r="58"/><circle r="42"/></g>
<text x="1040" y="695" text-anchor="middle" font-family="Archivo, Arial" font-size="20" font-weight="900" fill="#A9843C">FORM</text>
</svg>
