<svg xmlns="http://www.w3.org/2000/svg" viewBox="0 0 1200 800" role="img" aria-label="Blueprint Collection — in development">
<rect width="1200" height="800" fill="#ECE4D5"/>
<g stroke="#D3C7AF" stroke-width="1">
<line x1="0" y1="200" x2="1200" y2="200"/><line x1="0" y1="400" x2="1200" y2="400"/><line x1="0" y1="600" x2="1200" y2="600"/>
<line x1="300" y1="0" x2="300" y2="800"/><line x1="600" y1="0" x2="600" y2="800"/><line x1="900" y1="0" x2="900" y2="800"/>
</g>
<rect x="60" y="54" width="150" height="60" fill="none" stroke="#17140F" stroke-width="4"/>
<text x="135" y="97" text-anchor="middle" font-family="Archivo, Arial" font-size="34" font-weight="900" letter-spacing="4" fill="#17140F">FORM</text>

<g transform="translate(600,380)" fill="none" stroke="#17140F" stroke-width="5">
<rect x="-170" y="-120" width="240" height="180"/>
<path d="M-170 -120 L-110 -180 L130 -180 L70 -120"/>
<path d="M70 -120 L130 -180 L130 0 L70 60"/>
<line x1="-170" y1="90" x2="70" y2="90" stroke="#A9843C" stroke-width="2"/>
<line x1="-170" y1="80" x2="-170" y2="100" stroke="#A9843C" stroke-width="2"/>
<line x1="70" y1="80" x2="70" y2="100" stroke="#A9843C" stroke-width="2"/>
</g>
<text x="60" y="712" font-family="Archivo, Arial" font-size="26" font-weight="900" letter-spacing="4" fill="#17140F">VOLUME IV</text>
<text x="60" y="748" font-family="Archivo, Arial" font-size="18" font-weight="700" letter-spacing="6" fill="#A9843C">IN DEVELOPMENT</text>
<g transform="translate(1040,690)" fill="none" stroke="#B7A98C" stroke-width="2">
<circle cx="0" cy="0" r="58"/><circle cx="0" cy="0" r="42"/>
</g>
<text x="1040" y="695" text-anchor="middle" font-family="Archivo, Arial" font-size="20" font-weight="900" fill="#A9843C">FORM</text>
</svg>
